HIERARCHY
ROOT teapot2
{
	OFFSET 0.000000 0.000000 0.000000
	CHANNELS 6 Xposition Yposition Zposition Yrotation Xrotation Zrotation
	End Site
	{
		OFFSET 0.000000 0.000000 0.000000
	}
}
MOTION
Frames: 68
Frame Time: 0.008333334
1.031242 3.665541 3.427740 -39.598940 -0.482788 1.766714 
1.031242 3.665541 3.427740 -39.598940 -0.482788 1.766714 
1.031242 3.665541 3.427740 -39.598940 -0.482788 1.766714 
1.031242 3.665541 3.427740 -39.598940 -0.482788 1.766714 
1.031242 3.665541 3.427740 -39.598940 -0.482788 1.766714 
1.031242 3.665541 3.427740 -39.598940 -0.482788 1.766714 
1.031242 3.665541 3.427740 -39.598940 -0.482788 1.766714 
1.031242 3.665541 3.427740 -39.598940 -0.482788 1.766714 
1.031242 3.665541 3.427740 -39.598940 -0.482788 1.766714 
1.031242 3.665541 3.427740 -39.598940 -0.482788 1.766714 
1.031242 3.665541 3.427740 -39.598940 -0.482788 1.766714 
1.031242 3.665541 3.427740 -39.598940 -0.482788 1.766714 
1.031242 3.665541 3.427740 -39.598940 -0.482788 1.766714 
1.031242 3.665541 3.427740 -39.598940 -0.482788 1.766714 
1.031242 3.665541 3.427740 -39.598940 -0.482788 1.766714 
1.031242 3.665541 3.427740 -39.598940 -0.482788 1.766714 
1.031242 3.665541 3.427740 -39.598940 -0.482788 1.766714 
1.031242 3.665541 3.427740 -39.598940 -0.482788 1.766714 
1.031242 3.665541 3.427740 -39.598940 -0.482788 1.766714 
1.031242 3.665541 3.427740 -39.598940 -0.482788 1.766714 
1.031242 3.665541 3.427740 -39.598940 -0.482788 1.766714 
1.031242 3.665541 3.427740 -39.598940 -0.482788 1.766714 
1.031242 3.665541 3.427740 -39.598940 -0.482788 1.766714 
1.031242 3.665541 3.427740 -39.598940 -0.482788 1.766714 
1.031242 3.665541 3.427740 -39.598940 -0.482788 1.766714 
1.031242 3.665541 3.427740 -39.598940 -0.482788 1.766714 
1.031242 3.665541 3.427740 -39.598940 -0.482788 1.766714 
1.031242 3.665541 3.427740 -39.598940 -0.482788 1.766714 
1.031242 3.665541 3.427740 -39.598940 -0.482788 1.766714 
1.031242 3.665541 3.427740 -39.598940 -0.482788 1.766714 
1.031242 3.665541 3.427740 -39.598940 -0.482788 1.766714 
1.031242 3.665541 3.427740 -39.598940 -0.482788 1.766714 
1.031242 3.665541 3.427740 -39.598940 -0.482788 1.766714 
1.031242 3.665541 3.427740 -39.598940 -0.482788 1.766714 
1.031242 3.665541 3.427740 -39.598940 -0.482788 1.766714 
1.031242 3.665541 3.427740 -39.598940 -0.482788 1.766714 
1.031242 3.665541 3.427740 -39.598940 -0.482788 1.766714 
1.030530 3.665327 3.427248 -39.622800 -0.439179 1.753469 
1.029928 3.665070 3.426533 -39.610750 -0.441040 1.737227 
1.029650 3.664856 3.425987 -39.608550 -0.467468 1.727560 
1.029690 3.664880 3.425527 -39.602290 -0.476410 1.739955 
1.029880 3.664989 3.425122 -39.599400 -0.481659 1.766459 
1.030148 3.664928 3.424968 -39.599460 -0.485626 1.759926 
1.030292 3.664919 3.424792 -39.591550 -0.480011 1.760997 
1.030253 3.664848 3.424854 -39.601200 -0.482849 1.747862 
1.030266 3.664943 3.424798 -39.590360 -0.485901 1.757028 
1.030014 3.664916 3.424935 -39.601410 -0.483521 1.755415 
1.029796 3.664990 3.424902 -39.594600 -0.478088 1.772880 
1.029560 3.664986 3.425012 -39.587220 -0.476257 1.771804 
1.029415 3.664920 3.425061 -39.598450 -0.472168 1.760235 
1.029310 3.664786 3.425226 -39.603090 -0.469330 1.748979 
1.029434 3.664728 3.425128 -39.600160 -0.460999 1.752543 
1.029578 3.664997 3.425050 -39.595640 -0.494690 1.750744 
1.029770 3.665033 3.424975 -39.577270 -0.471222 1.788537 
1.030011 3.664988 3.424824 -39.598330 -0.485230 1.762588 
1.030091 3.664924 3.424778 -39.599300 -0.474213 1.761105 
1.030090 3.664982 3.424861 -39.596620 -0.472107 1.765523 
1.030042 3.664986 3.424987 -39.596370 -0.474091 1.762264 
1.029992 3.664924 3.425147 -39.595640 -0.469116 1.753999 
1.029859 3.664913 3.425294 -39.602570 -0.460236 1.761743 
1.029832 3.664900 3.425414 -39.597410 -0.461700 1.758312 
1.029779 3.664907 3.425581 -39.607060 -0.457886 1.751970 
1.029631 3.664807 3.425664 -39.614440 -0.443481 1.750664 
1.029550 3.664731 3.425553 -39.620420 -0.436554 1.751980 
1.029746 3.664680 3.425340 -39.607180 -0.446228 1.747483 
1.030034 3.664947 3.424965 -39.586910 -0.482361 1.764577 
1.029902 3.664955 3.424839 -39.604610 -0.430237 1.773210 
1.029697 3.664819 3.424777 -39.626800 -0.427979 1.750435 
